<mxfile host="65bd71144e">
    <diagram id="HIP3nbAZw_EuaXWnEj3U" name="Page-1">
        <mxGraphModel dx="906" dy="563" grid="1" gridSize="10" guides="1" tooltips="1" connect="1" arrows="1" fold="1" page="1" pageScale="1" pageWidth="850" pageHeight="1100" math="0" shadow="0">
            <root>
                <mxCell id="0"/>
                <mxCell id="1" parent="0"/>
                <mxCell id="7" value="http://ics2o.mths.ca" style="swimlane;whiteSpace=wrap;html=1;" parent="1" vertex="1">
                    <mxGeometry x="60" y="10" width="760" height="480" as="geometry"/>
                </mxCell>
                <mxCell id="8" value="Age Check&amp;nbsp; for movie" style="rounded=0;whiteSpace=wrap;html=1;" vertex="1" parent="7">
                    <mxGeometry y="20" width="760" height="60" as="geometry"/>
                </mxCell>
                <mxCell id="9" value="What movies can you watch" style="text;html=1;strokeColor=none;fillColor=none;align=center;verticalAlign=middle;whiteSpace=wrap;rounded=0;" vertex="1" parent="7">
                    <mxGeometry x="40" y="100" width="190" height="30" as="geometry"/>
                </mxCell>
                <mxCell id="11" value="Put your age below" style="text;html=1;strokeColor=none;fillColor=none;align=center;verticalAlign=middle;whiteSpace=wrap;rounded=0;" vertex="1" parent="7">
                    <mxGeometry x="60" y="130" width="140" height="30" as="geometry"/>
                </mxCell>
                <mxCell id="12" value="" style="rounded=1;whiteSpace=wrap;html=1;" vertex="1" parent="7">
                    <mxGeometry x="50" y="170" width="130" height="20" as="geometry"/>
                </mxCell>
                <mxCell id="13" value="Calculate" style="rounded=1;whiteSpace=wrap;html=1;" vertex="1" parent="7">
                    <mxGeometry x="50" y="210" width="90" height="30" as="geometry"/>
                </mxCell>
                <mxCell id="14" value="" style="shape=image;verticalLabelPosition=bottom;labelBackgroundColor=default;verticalAlign=top;aspect=fixed;imageAspect=0;image=data:image/jpeg,/9j/4AAQSkZJRgABAQAAAQABAAD/2wBDAAsJCQcJCQcJCQkJCwkJCQkJCQsJCwsMCwsLDA0QDBEODQ4MEhkSJRodJR0ZHxwpKRYlNzU2GioyPi0pMBk7IRP/2wBDAQcICAsJCxULCxUsHRkdLCwsLCwsLCwsLCwsLCwsLCwsLCwsLCwsLCwsLCwsLCwsLCwsLCwsLCwsLCwsLCwsLCz/wAARCAC0ALEDASIAAhEBAxEB/8QAHAABAAMAAwEBAAAAAAAAAAAAAAUGBwIDBAEI/8QAQxAAAgIBAwIEAwYCCAQEBwAAAQIDBAUABhESIQcTMUEUIlEVMkJhcYEjUhYkM0OCkaGxYpKj4RclctE0VIOTotPw/8QAFAEBAAAAAAAAAAAAAAAAAAAAAP/EABQRAQAAAAAAAAAAAAAAAAAAAAD/2gAMAwEAAhEDEQA/ANb0000DTTTQNNNNA0000DTTTQNNNNA0000DTX3XzQNNNNA0000DTTTQNNNNA0000DTTTQNNNNA0010W7tGhA9m7agrV04DS2ZUijBPoOpyByfYaDv01nuU8V9s1GaLG17eTl54DIDWrsfTgPKDJz/8AT/71pfEzeOVtPToUatV3DCIw1rFuaJwQeZhw3K9iDxFz359uCGz9tO35axSfLeNNqVhWhzyQr8qmTFw13fj8RBhX19h/ue55zXPGWosXQu4JZRGWnc0a0ypISCEjjjDggD1J/mPb5OWDaNNYk2/vEnDOTlKoeLqCqcrjJKbuCOflEfl//wB+urFjvFrEy+WuQoTxFuvqkqEShArEAvHJ0nuO/wArP++g0zXzUdis5g83E02KvwWkXjzBGxEsfPp5kTgOOfblRqR0DTTTQNNNNA0000DTTTQNNNNA0000DTXxmVVZmIVVBZmYgAADkkk6yLeO7MxmZ4sLg4LiYy07QCzCrpLmel1SSKlJ0lSncc8eo7n5ezBNbs8SsfiV+FwZrX7zGVHm6+qrVZG6TyF7sfXjggfmfTWfy0M3nfh8ruvJzVIbSn4OS91PYnMjAKMbjIB5jKeVPYIvzc8njvNba2myTtDRjqXszAVFzJWFWxhsHIwB8qBBys9pR3P4VJH8vOtQxO28XipHtnzbmVmH9ZyeQbzrsp444V2+6vHACrwOAPXjnQZ/idkOfJlo4GFVYK5v7xeSWc9S9LBMRW4QEHuPMZv11cIdpW2WJLm5MyyR8hK+JNfEVAreq+VSQNx/j15vEC5fp0cIYrlmnjrGZqVsxZpSeVajqSc8lJOCQOx5P6D0PBldt4rM4ePJ1buQa9T+NeTEvPJLNaiqN/dzyyAcn6cc+/fvwoV6bE+Eq0VytkJZqPbSj8VLaylsNaHKhDw7Hn15PHGvZkto+GeMrNdv46GpXiaONp458hH0F3Cr1NBJz6kdzqg3ZbKba3hja+OsCri902bE16WxAYq0qTJEsSIF8wknj8HHzeur3vu9M+Dw9KvALL53IY2uYElSN5oQyWWjjZ+3LEKvftwx0HKhiMBfDvtrdmVQQIA0NPLfH1ovM+6Za1vzB34PHPHv+0NlNk32BazicLnFAYmbHr9g5cszcliIeabkfmo5/wBrfi5sdVxt/MSYRcIemebIRGCCOdo6oc9chhA6u3PT+v596bj8lvyaPb+4xbuTJnc9HWbErUV6VbFPI0YdpFHUnHHZu3PYknv1BUrW37kM8a7etXYsjXRbC43KJ8BuCNgH5lqkEJIpC/gfngAdJ41P7b8TrtWQY/dKM3lyNC9sRGOzAV+U/EwgDq4PY8AMOPRue2i56Da9uOlSznwnN6x8Nj/Pbom+II8wfDyrw6t2HcEd+B+IBqHunazRRlsw817HxqFg3BHH5mXxijgBcpHHx50I7HqA6h3+vDBqFazVuQQ2as0c9eZQ8UsLB43U+6svbXbrBMTm9ybByEcFnotYi2fiPKrSrJUswMR026EgPA557dhz6Ecj5Nwx2RoZWnWv0ZllrWE6kYdiCOxVge4YHsw9joPXppr4SACxIAAJJPYADvySe2g+6a64Zq9iNJoJY5Yn56JIXV0bglTwykj15Hrrs0DTTTQNNNNB91801A7sz0e3MHeyHKmyQK1FG7h7coITkfReC5H0U/XQUTxK3dK0jbXxbFnfoXKPD1F5GfjppJ0d+/I8zj15C/UHu2vgm8uxgOpzPFDZTNZCiyxnDvZEbrjqFhlfqkPB8/2XqIBB7NUtrUrssn210+dm8pekobd88BgbzKZLeTkVvVYFPUD0sOo/Ve2lZyU7K21jamKl+HM1+tTnydiH4jyGsMXmvWV7kseCfQ+oHsBoOzdkuQ2xtqKPbdSOtTrskFiaugklx9Vj808ULcBmPJ6mL88nk88lk9u2srtwx1MHi8nYyUlbHpdexK0s7FJn6v40xHAclueg8EDtx21ER7oXBCnjt0ZKDKxZLzZa+SpVP6oMbJxFDJcKDyz5h6hwvVwB3J6udeGDFbp25euU9oQ1bOF3EBco2piHr4mUheqRpF56k6SPL5J57evSfMC6bjxK5zCZbFnpD2q7CBm+6thCJImJ+gYDnVVwlTeFvMbRuZGhZorhMPaoZKaezG63pCDCqpChPfkBy3v279hzNT5w4aKhhVezn9yCsgNesscUspA/t7b/ANnEh5HdiT3Hr664DD7uyo68znGx8L8H4DbY8grw/UPMvzBpiSOA3SFHrx66DzTbODUt81ZsjHFBuS8LoYQHiowm83lvMl4Yn5fdfTXPKbauZNdpS43N14p9uRMIJJaqWUsTCOKHzWCygAjp+h7n8teuPY2y0ZpJMWlmZyDJNfms25HIHHLNYkb/AG1zl2VsiUcNg6K9mAMKvCw5HHKmJgQfof39dBGbmobvtbOu0neC5lJJYzaGOjMJmprMHZYEk/HwByPfuBz6HswOZuscrPNQmxO08PjqsNP7VrPXuloIx5jFeo/KoBB7Hk8cHnka+XcUMBEJsduybFRJyyVs3Yiu49gOP4YFsicA8D7snb2HfvWMj4gbZyWNvYjcVJ7blogWwU7NStNGwcSRyTNHKoBHoQf350Hgr5Pc25d4LbrY2OOyKUk23/tgSJWx1ASGNrxgQcvIx7KeSOT7hAY9Uw+OyFGo8ORytjKWJZHllmsRxRopf7yRRxjsn0BJ/Ydhin9P7VfOW8njcdXrxy1KeLhhk/rHwlKuUHRW6OheTxz6Een05PXfz25Nx3bVeplM9bgklQVq6R+XIsJkHBmrYxTExA9e49P20Ft3Xj9sYgmjJdrR4fITzK9SOaN7uAtTpx8XQrqfMMDdxPGPr2HsKhtfdl3aU9t4kF/E2meIw+eYVkswoo+Ih8xS6g9uSUHIIB7p8vbU8Nt7ZB3DV4atcyvIk2RdInkBPHUYog8o5+hA1b6PhHR5STL5izYYLGvl0Y466ARqECl5OskcDj7o0ELkfE/c5MYSOtj+WZ1WKv8AE+ZGenp/rEknSfU91j9QPr2r1o7u3d5AgXMZEQqIuQLDwNxyweQsBCGHPBPbngdhx30TNQ+H+wY6Trtr4uzaWdq8koScB4OjnrltsxUnqHHSn1+mvVvHdt3G7YwOVwrRQyZaSqYzJGkpigkrPOQqsOnkHpHdfr2+gSOwMbncRt+LH5iBYJoLVlq8ayxykQSkS/MYiV56i/vq2agto2b9zbmDt353nt2qzWJpXChn8yR3XsoA7AgDt7andA0000DTTTQNYv4lZCbL7ho7fqnramIKsUQ6eJMjkGQcMSfRV6QD7Eke+tnZlRWdyFVQWYn0CgcknX58xN+K1mdxbnbzFs0KeYzKmYJJEblmT4SlGi8cjpaVT3P4fy7ho21qmOonMZl3VcTt+rJgcTIwAU16XMt+7wpKEzSdR5Hf5ePfXvr758P81A9axegiSxH0y1stEYEZG9naQGE/851NYjEVqGBxuHmijligoRVrMcqq8crFOZetW5XhiW7fnrNtxwbb20ZZMTkcFcqlpHm25lhHfjSQgjrqMoaRD78FgPXv+HQTL7cz9MXl2jexeRwOV80T4/LyC1WqzSnq86BwGBA9eCfpyG9Vkg17BUMDs7CyrPm5KbM9qRQ0WPq9bebekjPI46iRCh7E8D24bN8Hujae2IadvG4a7ZzRofC3rFu0kNcyysJXMUaGQ8DgAHpXsPYk8xjb63QtvM2qthKsuWtGe1LDFEbHlKvRFAssqsQkY7LxwfXv30G74vFYnbtOULIAzt5+Qv3ZB59uc8lprM0h7kkn34HP+cbkt/bKxilnyaWX6mVUxytZ6yoBIWRP4XuPV/8AbtjYwm+NwiCY1crkpZ0SZJ7TTmONW56UFi0yw8MOG7c+3p3GrHj/AAuziQmXK5LGY+uiu03UptFUA5BkLMkQ49fv/wCfpoJDIeMHJK4nD8Dk9E2Sm45/Iw1//wBuqhe37vjKt5Qyc8Cyc9EGLiWuwc9gqvHzMR/j/wC96wezfClrKV0y8WYuj5hCchGFZl+YmKKqVJHbkjqbVh3FZp7JwkmQwmEx4KzwQSiONYFRJeoCWQxL1N36R94fe9e3cMnq7N3tnI4ZDi7iTiSTqs5TiBZIX4KljORKSD1fgPYj+Xvacf4R3XWH7XzMUaxhk8nGwl2KuSxHnzBfqf7s6sVfO5XcewsjlYJTWykKWWsHHM8RQ05hM6QlizAtGAB3/Fro8M8rPbq5zHWLdi01W58XUnudXny07RYK7dfLdypbux+/oIef/wAHNrmSpNFby1upZlilhmElnosLwj9aSmOrz2APb2/LVt2XufG7ijykdDGDHQ46WBUiXo6XjmViH4iRUB5U8gE+3fvrN99QQYXfMV2avFLTtTY3LvFJGsiSIreVPGysCPmKsT299bjEsEccSwrGkXSoiWMKqdPHYKB20GT78zWVv7kr7Rr2Wq1JpMbVYqXRZJ7hX+JM0bKxVQw4XuOR6fywc0OX8Ndz0ljuyWcfLHXnn6UMaWqbuY5VeEMw614PB5PsffjUn4pVGpZzD5WFDG9pIGE6qzOLFNyOw6gOwKEdu/fv21fr+39u70q7fyd5J2Raq2YFglMQeO2iSFJCB1cDgehHv9dBF+KGP+P2u1qIdT421XuAr3Jhk5gfjj2+YMf/AE6zS3PkcxtTZuIq17Nq3TyGarmCCKSWYrGsM6fIgJ4CyH9l/LW52KVC/h7uKrvG9Z6U2MXokEojKx+SFZiWPK9ueefTvr8/46jPdlzisLpy1KjNerJXmihk+IqyqsoQdBbhVJYKvBPQeD2AIfoDb9aSngdvVJUKS18VQhmRhwyyrAgcMPrzzzqT1n3hzu9czU+yL0rHJUIh5LzMC9uovYMT7unYN9Rwe/fjQdA0000DUfkM3gsUpOSyVKqeOQk8yLIw9fkj56z+w1V/Ehcz9j1mxtm1Ez2kgkipC41myZPuxotY8ccdRbq+gHqeDm1Lw/3nkpIG+zTWrqnHmZOVa7u55ZneMdc3JJ/k9OBoLvuHxP2uaGTpYz4y3Ys1LNeGdITDXjeWNow5aYrJ2557J7aymjmLdGhfqVVA+Lnx81uRoUkCxUpvOhC9Xb755bkHnhR7fNo2P8JKKSxpl84WneMyfC49EjfpBAZlknLMV7gE+UPX89XTHbG2ViwTDioJXKdLyXi1ksAQ3JWYmP2B7KPTQYlJc33umTpaXNZONy3MVcSNAvJI5aKEeSv58gdvy1OY7wx3ncSP4qOjj16iXkszGWw0bKE6QlcsvA49CV9T3+k5Y35uvM37GN2TjYvhaysySCBGlaKM9JkIlIhVT+Ecc+nueBN7C3rez8lzFZdIlyVaIzxyRoYjNEjiKRZYz2DqSPT1B9B0/MEHLs3w/wAIR/Sjc7TzQrGDUSRYOIwCUX4aHzLHA5+XhhqwbRueG1y9YobdxcaTVK62hYnrDzJEEgjJjksFp+xI5549f8qb4r40V89QyIjBjyNIdfPP8Semehgeng91MY9fbWpYLHbeq06lvDY6pVju1YJlkgiUTNFMiygPKeXPt6t7aCc1kvi7dtB8JjzM6UngtW3jj7mawpCJ5gPA4X9fxHseNat1N1dz29O/vrO/Fah8RiMZkegsaN4QzBe38C0ADyR7dSr/AJ6Cobw2rU2vT27mMLZtMk5hV5pHBZbSqtmGaJkA454Y8f8ACPrrTZHG7djySAB5snhjJ0xHgfHRL1dI/SReNeHawxO4NnYePLRVrMOLLV51s/2MclAtGjv1EdghBPPse+rBh8ltu0tingp6TwY4RCSHHoqwQ+b1OoXoUJ34Pp/voMs8P9xUsBQzEObWxHTvmC1QX4WZxaYh68wj4HQR2UE9QHb1+ni8PMlHR3klRGf4W7Fcx0Jlbuqc/EQhh1Ec8rx2Pqx1zjxuNob9GOyNZZaDZmaqYpxI8LRXlMtXq7hOzMCB+v012b6pw7c3ZjMpRrRQwhMdkYoq6CKJZKkoieNVj4UfdXn/ANX56Cw+L+PElDCZQKP6tZlpSkA89FhBIpP5AoR/i15Nk7ay+ZXbu5rW47TrRnYxVZGlssvkSvE0XVM4VAVAHAU9j69+123ZVizW1szHEA6y4/4+qQDyzQgWo+njvyeOP31nGxN6YrbOHyNfJ/FOHvfEVIq0aySHrhRX5LMqgdl45I9T6+wW7xUx3xe2hbVQXxdyCwT7+TLzXcD92Qn9NROAl+3fDDNY8yHz8bBeg5DEMfhyL8I7exHC/sdXPD5TF71wNqU13SrbNzH2YJGVnUcdJ5ZRxyQVYcenP5az7/w33zj5MhTw2XrJjr3Mc7tYngeeAggLZiSNu45YdiR3P8xGgkfB+3K+Pz9A8+XWt1rSHuQDZjZGUH0/uwf31AXR/RvxKey00cVVchFdUSllDVsmQkwiHHHy+Y545H3T+9827i9ubAx08WQy9Nblt0ntzWJI4S/QCqRwxFi5VeTx6kkk9vRYnLeIPhzFb+Mhx5yuRjiWKKytONOhUJYIJrYDgck+iHQRG5dmbhxe5aWY2jVkf4idrSR1+lVp2lPLo/WQgifk8cnjuV9OOdYoy3JqdSW7WFa28KNZriRJRDKR8yCSMlSB7HnWM5Lxb3FYBXG06VFW54Zw1qdP0d+mP/p69exdxbuyG56v2nNkrMFupPHIHSYVoVeMTRT+UiiFQSnAYAff+noGyaacH6jTQNRufExwW4PIeSOf7KyBheJmSRZRA5VlZeCDzxqS1wmjWaKaFvuyxvG36OpU6D817ey9vC5fHZ1zM8UdnyrDMSzTxuqieNj35PS3K8n1APtxr9JAw2oAUcPDYh5R0PIeORezKfzB5Gvz7t3EyZbC75xQXru0UpZakqkN/EptNFKq8evUrdPr68fTWk+F2c+0sEcbO5NrDssI6vvNTk5aFv24ZP0UfXQU/wAOLE2L3hkcVbKrLPBaxpUKF/rFFgy+gA9Ef9edWePFbPwu75c3LuaFblrITiDGV/Ldlmu8xNHMIy78FmJ7qoH17c6qu8F/o3v6tlU4SKSzRzHSq/MyOVinHI/mKyc/r+ff2eI+1MXjUqZvH9cbZDK2DdkaQsgksqZ42RVHAUEN6Anv76Cy+K2O+K23HeVf4mLuwzM3uIZ/6u4H7lD+2qhtOt4j7ho0/s/Nx1cVibEVWNJJXjI8jpmEbRVl6mHcfebvxxz21py9G6toD7pbMYXg/wAqWZIeP/xcf6ay/wANNy4zAy7grZe0tWtLHBYjMiyMBPCxjdFRAWLEMPb8Gg3Hge4GobdGObKbfztGNWM0tOV64QfMbEI86ID9WUD99fcDuTDbjjvS4ySV46k4ryGWMxliyBw6qx6uk9wOQPQ9u3eY0GReE1+F13Fgp2HROq3oEJ4Loy/Dz9x+Xl+/1+nbxeFsj190ZmjHIZYTQtrI6t1I/wAPZjWOQcfq3/NqxZ7wtxuRvT5CllHxscpeWeFq6zQRliWcwnzE6VJJJHcdz6DsGIn8Mthx2Qmait5CwqrYmiPxUzBDz5SLVBRF578Fv1J4HAQXiljbkO4MHkqEUzT3a6oi10Z5GtUpAwYKoJ54ZOP01aN67byW78XtuejEkF5HWWSO6WgMENqEPIsoKlupWCgjp59fpqKu+LlJpFixGKkkZz0JPk54q0an6lYy3b9XXVNyHiRvjIB0S7HSR/l8vHRLEQfbiRy03P6PoNqxET4PAYqpm7lESUai1ZrDSCOuUjBVfmn6T2XgHkD01QTb8EtunmKuuUtRk/djkvHsexVrJWt29uDqgSYndd2G3mcnTyUlSCF5rFzIyNACG+VTHLa+8SxUAKDzzx78iwQeHnwlSjc3PnaWIguvCI4jG8tgOyGTypGfpVWA55+8BoJe74sSRwdGExFSskYjWNbvW/KsWHyxVuhF44Hq/v8AlqqW9573zUkdcZC9J1humvjFNd3LLwUK1B1EA+nJP/tLbbx+AoQNks5hp8hgbFqT4fKRSzSCpHHI0SHI0IHPAPHUCQfvcd+e2zYqLBpUhkw0VFKU6h4mx8cSQuPTkeUAP10H5wnwmZhq5Oe1Wswy0moyXRZZY2C3SRCDE580uxDH07Ad+OdWrZPh9T3Lj2yd6/ZhgFqWssFaKMSMI1Ql/Ok6h78ceX7a4b0yS2aNyyvls24dyW7UEkb9XXi8NH9m1yR7BmMjD9P89T2PQOO2rt+BlCvJUFyQcEHqtMbHzc9+QGAP6aDrx2wdkY3paPFQ2JQO8mQLWiSPfol/hg/og1Zo44okSOJEjjQdKJGoVFH0Cr21y00DTTTQNNNNBgWMzNnaG79zmDHPcd5cjjYa8UjLyxtLKjnoRyTwvoAPX241wwOTyG2N3U7mQoz4ynlGdZa08ckKxUbUpClVlPV0RsAR+S/nq60dpbig8Q7efWCKPFC5bm8ySZOuZbFZkby40Jbsze4Hpqe3hgto5Y42xn8itAUhOEcWq9Zpo5enmNmmBJHbtx9T9dBFeJ22bmZo0sjj4WmuY0yrNFGCZJakgDEoB3JQjkADuGP04NOhy26d5Y/A7SGLYCrZppevlJGKQ1+YxJMJFCL0r97liWI4A+bg3Wx4k7IxNeCpSmvZE14Y68fkRuf7NQi+ZPbKk+ncjq1Vcj4t5qVeMdja1NHZk8yx12pF6SPmQ8pHz+RU/wCug0LZOKy+EwaYzJeX11blwVvKYODWeQupJBPqSx4+hHuNVbIbT8L8bkMlezeXPmWrVmy1H4pUEazSGTy1gqD4ggenrrPJ89vrcjSQfG5e7I5HNagsgiKdxw0FRQv+a/8AdY2buenFSsXaLVkvXa+NpR2JovPls2QwT+HH1MAOOTyB/r2C+r4g7C28k1XbeDmkJKiQxxrTjm6OQC8svVOeOT6p7/nqv3fFXdVt+mutTHwdQ5NaNZbPR1DqAktdSc8c8fwxqRoeGmHurl6cO5RPlcZKIrCwVCtavO68mKVi3UwPBB6XHB57cggzmNo4LbPQua2WsDRkf+bUI5c1S5VQWlJl67Mf5Do/fQZkYt9bqcFVzeURmPS0hmkrI3J9GbiFf9NWTH+Fm77aKt6eljq7EM8bSGzMGAA6gkPMfP1/ij/21WtuzZlmNWhzuKVewVJrUVdx+XlTlXH+Wu2Tc20oQxkz+GHA54+PqluPyVXJ/wBNBU8d4T7WrdDZCe7fkAAZSwqwN/gg/if9XVtq4fa+CheerQxtGOvGWlsmOKNkjQclpbEnzcD3JbUYd5U7gKbdxuSzcx6lV60D1aCup46ZblsKg/UBtfI9v5bMyx2d2WYJYI3ElfCUOsY2NgeVa27/ADysOB2PCg89iG0HTXE28L9PIyRyR7YxswsYyGZWR8vbXkLclR+CIU9YlI5J7nt8ohbe72vw/aWQ2rDe2cbc9ZbbCK1Zh8thH8TLXcHpUnn2H6+nmejI7j3tVZM7HhXrbYx1hq9ujMirk7FfvG1wpx8qoR8gDD15PKnqTtO3qQY7n2vZtzUrMUmSfC0bHk08pZKkIG6yFVe7CRCp9Ongemg7U2VsTMVYb+FlsVIrCu0VnC3JI1Ik4DqUk6lHpwy9I4447ca52sfBs/b13HYQu2QzmSerjutm6hdyHESkMeohYkHVySfuck99eTZlGzFls9k6+Kv4LBWKsIONyPMatkeQ8s8Mb91RQCAewPV24A6Y6/urc/WLGchkIMkVvDbTT0cQufLvZjj1HV/ZQnqHbvx20FfnpQ7k3Vh8HRk68bRNXEVivSOrH0VJsWuqP5eXIkb2PzD6639VVVVVAVVUKqgcAAdgABrMvCnbjVKdjcFqPifIL5FEMOGWorctJ3/nIHHb0Xn0bWnaBpppoGmmmga6bbW0q3GprG1ta87VVlDGNpwhMYcKQeOeOe413aaD88Wd+74yciRnIWYyZQUrY2JIer/g5jBlP6EnXXS2RvnMMZjjLaeY3exk5BXPfk9bCwfNP7KdfoCnjMVjw4o0alUOSX+GgiiLEnkligBOvXoPz3uHw8z+3sZFkppq9pFfpuCoJSKqngI5aRQSpPYnpHHb157evaybX8uvlHxiX0oQLHuDH2gbM1aPq4+1qcZ7NF6CZeklfX0POt3kjimjlilRJIpUaORJFDI6MOllZW7EEdiNYpunZ+U2hfjz+3nsLQjkMqPE3VLjZGJHRJzzzEfTk89j0t9ZA1z4nH08W9zG1viqkUJmghwqQyGdB/8ALKjKh/Lg+37ay/d1/eGXn20PhExdyW+JMDjEczZR3KhTctN2jjVfw8gEHq9k6l+bX3S5lY4dK8NmZ/Mu7ckkENS47fenwsr8hJfdoieDz254+W/4mfaWayUmZqxBc5Xq/A2oravDkKcfUCY560h7EH5eoA+46iO2gjf6OZzDbaqYbbtgLkLl2JstkncCVfO/+IsxB/U9gq+/Hf73fXHamQzLW97Y4W7GXp4SaOvjbN0oliayI3Mtd5lHBAYccn0559DwGfvbsxObv3atHLZCjYwoq4uHHj4itFkusnzLMCjqHH83B5547/3fv21hpcBtiKnPZSpkbSTWLdmQxv5eQtjgMes9DMnyr69+n89B4IMrFks1Qwm4tnVa9+3XntIZ5KGRQQxKx8xmCejEFR35/wB9cPtPaNSju3IY7bNFZNt32oTxLWoVWmkSVYjIkiqQFHJIJ79vT2159vQX23xnBksgcpcw2HrVBeFaKqClopOIjFCSvI5bg+vc8+g4reRqZqWz4xVKlutBSgdMnegkr+ZLYV0eyBG/I6fTkng6C65/N5g29m4vEWa+PO4o7Ewv2IBZ8kRQpKsUUbcJyeoDuPca9ezc3kMtRvQZXyxl8RkJ8bkPLUIHeM/LL0DsOe49AOVPYeg4VsjZq7JxOXqUBfuVsDQljrhirMfJjWTpYKzdhySAO/Tx78iF2rdhyW8NwZXDpO2FyeKqS35ZIJIY0ysRRfKQuO7AFi3HuT7cFgt2cw1HNVoa96a0tOGdLNmGvK0cduOMFvJsdI6inPBIBB7aqexUtrkM6+HScbKnmeTGG+HSU2SQHNJW+byfUfMB6D8Qbm8XshjsbXe3ftQVqydmlncIvPBIVee5J9gO51n+49zfEVFaZ7WNwc0EjpTjRo89mo0JHCR9/JqsASzngkDgD5+CHfuncdO9XyECWGj25SkEGauwMVkydggsMTj3HqW4/isDwF578feouAxmU39n5LFpPIw9YV47CQcxwVqcP9hQqqvAHYcD6d29TwzH1Nw76tQUqSLQwtVYY5Y415o45ImkIES9KkyEMT94lieSwH9ntmHw+NwVCtjsfF5cEI7luDJLIeOqWVgByze/+Q4AAAe2KKKCKKGFEjiiRIoo4wFREQBVVQO3AHYa56aaBpppoGmmmgaaaaBpppoGvjKjqyuoZWBVlYAggjggg9uNfdNBlm6vC6Kdpb+2jHBMSZJMdI3RA7Hv/VpGPCn/AIT279ioHGqi+Yy+OelBuijZmtQNJHUtLKaWdoLESgMVxeXYfMSodXB7cH+X9A68OSw+GzEPw+To17UQ56RMgLIT2JjccOp/MEaCg4veWSVYxXyVHLRsG8upnejB5nnkBY1nPVTkIBHJ5BOprIbg27dqy1N0YPMU6oZGkN/Hzz02cdwYrNDzFPHseRqCy/hHjrDyTYnJz1mPcQ3V+Ji7DgKsgIkAH59Wq/8A0L8VcKz/AGdZmdGVQfsjJeUvC8AAxzmM+w/CdBecDc8KsObUmGymMqi8sPnLNfkHaIyFQFuPyv3m7dvXXZJb8NY7W4b0mcxjyZ6slXJKuRikSSFIvI6VSJuR2+ms9sWvGSLiOSnlbCgKP4+Hq3TyAOfmeGQ+vPfn/ft1RXfGLq4gxuQhJ/FFt+nXb/nFVT/roNKo7q2lVpQUsBBlslBSRYIoMTj79ooingDzp1VOPzMmo/L7xykBkSRsRt+EMFMmVsLkcsYnXkPDjMeWAYH2eTj66ph294y5kFLk2RSCTswuZFIYf8UEcnP/AE9SmM8HpSVfM5dQPxw42Msx/SecAD/7R0Fev7sjeylnHRW8llS6JDls95M88MjFW4xuMj5rxjqHKnpc9/YnUtgvDrO5222V3LLbq15nErRWJGkydkcdhIz90HseRz246RzyNNwu1Ns4ABsdQiSx09LWpiZrTAjg/wAWTkgH3C8D8tTmg8tDH4/F1IKVCvHXqwL0xxRAgD6kk9yT6kkkn3OvVppoGmmmgaaaaBpppoGmmmgaaaaBpppoGmmmgaaaaBpppoGmmmgaaaaBpppoGmmmgaaaaBpppoGmmmgaaaaBpppoGmmmgaaaaBpppoGmmmgaaaaBpppoGmmmgaaaaBpppoP/2Q==;" vertex="1" parent="7">
                    <mxGeometry x="430" y="130" width="177" height="180" as="geometry"/>
                </mxCell>
            </root>
        </mxGraphModel>
    </diagram>
</mxfile>